<?xml version="1.0" encoding="UTF-8"?> <svg xmlns="http://www.w3.org/2000/svg" width="98" height="82" viewBox="0 0 98 82"><g data-name="Group 319"><path data-name="Rectangle 1221" style="fill:none" d="M0 0h98v82H0z"></path><g data-name="Group 256"><g data-name="Group 255" transform="translate(3 12)"><path data-name="Rectangle 1197" d="M13.4 0h47.06a13.4 13.4 0 0 1 13.4 13.4v19.87H0V13.4A13.4 13.4 0 0 1 13.4 0z" transform="translate(9.062)" style="stroke:#cea92d;stroke-miterlimit:10;stroke-width:2px;fill:none"></path><path data-name="Rectangle 1198" d="M11.738 0h62.124A11.738 11.738 0 0 1 85.6 11.738v6.046H0v-6.046A11.738 11.738 0 0 1 11.738 0z" transform="translate(3.191 33.27)" style="stroke:#cea92d;stroke-miterlimit:10;stroke-width:2px;fill:none"></path><rect data-name="Rectangle 1199" width="91.982" height="6.382" rx="3.191" transform="translate(0 51.054)" style="stroke:#cea92d;stroke-miterlimit:10;stroke-width:2px;fill:none"></rect><g data-name="Group 253"><path data-name="Path 307" d="m1996.452 2154 1.846 5.834a1.272 1.272 0 0 0 1.212.888h3.242a1.272 1.272 0 0 0 1.272-1.272V2154" transform="translate(-1915.234 -2096.568)" style="fill-rule:evenodd;stroke:#cea92d;stroke-miterlimit:10;stroke-width:2px;fill:none"></path><path data-name="Path 308" d="m1800.731 2154-1.846 5.834a1.272 1.272 0 0 1-1.213.888h-3.243a1.272 1.272 0 0 1-1.272-1.272V2154" transform="translate(-1789.967 -2096.568)" style="fill-rule:evenodd;stroke:#cea92d;stroke-miterlimit:10;stroke-width:2px;fill:none"></path></g><g data-name="Group 254"><path data-name="Rectangle 1200" d="M8.482 0h10.605a8.482 8.482 0 0 1 8.482 8.482v4.452H0V8.482A8.482 8.482 0 0 1 8.482 0z" style="stroke:#cea92d;stroke-miterlimit:10;stroke-width:2px;fill:none" transform="translate(15.274 20.336)"></path><path data-name="Rectangle 1201" d="M8.482 0h10.605a8.482 8.482 0 0 1 8.482 8.482v4.452H0V8.482A8.482 8.482 0 0 1 8.482 0z" transform="translate(49.14 20.336)" style="stroke:#cea92d;stroke-miterlimit:10;stroke-width:2px;fill:none"></path></g></g></g></g></svg> 