<?xml version="1.0" encoding="UTF-8"?> <svg xmlns="http://www.w3.org/2000/svg" width="98" height="82" viewBox="0 0 98 82"><g data-name="Group 320"><path data-name="Rectangle 1220" style="fill:none" d="M0 0h98v82H0z"></path><g data-name="Group 259"><path data-name="Line 3" transform="translate(7 78.605)" style="stroke:#cea92d;stroke-miterlimit:10;stroke-width:2px;fill:none" d="M0 0h84.059"></path><path data-name="Path 309" d="M2093.659 2141.971V2087.7l26.948-14.462 47.345 22v46.726" transform="translate(-2081.776 -2063.366)" style="stroke:#cea92d;stroke-miterlimit:10;stroke-width:2px;fill:none"></path><path data-name="Path 310" d="m2092.761 2086.141-3.889 2.161v-6.838l30.838-16.549 51.346 23.863v6.75l-4-1.846" transform="translate(-2080.878 -2061.804)" style="stroke:#cea92d;stroke-miterlimit:10;stroke-width:2px;fill:none"></path><path data-name="Path 311" d="M2163.137 2108.586h-61.325v-13.441l21.477-11.752 39.848 18.641z" transform="translate(-2083.306 -2065.27)" style="stroke:#cea92d;stroke-miterlimit:10;stroke-width:2px;fill:none"></path><path data-name="Line 4" transform="translate(37.721 19.361)" style="stroke:#cea92d;stroke-miterlimit:10;stroke-width:2px;fill:none" d="M0 0v23.526"></path><path data-name="Line 5" transform="translate(60.617 27.579)" style="stroke:#cea92d;stroke-miterlimit:10;stroke-width:2px;fill:none" d="M0 0v15.737"></path><g data-name="Group 258"><path data-name="Rectangle 1202" transform="translate(18.506 50.069)" style="stroke:#cea92d;stroke-miterlimit:10;stroke-width:2px;fill:none" d="M0 0h61.326v22.018H0z"></path><g data-name="Group 257"><path data-name="Line 6" style="stroke:#cea92d;stroke-miterlimit:10;stroke-width:2px;fill:none" d="M0 0v21.748" transform="translate(37.721 50.069)"></path><path data-name="Line 7" transform="translate(60.617 50.069)" style="stroke:#cea92d;stroke-miterlimit:10;stroke-width:2px;fill:none" d="M0 0v21.748"></path></g></g></g></g></svg> 