<?xml version="1.0" encoding="UTF-8"?> <svg xmlns="http://www.w3.org/2000/svg" width="212.85" height="85.033" viewBox="0 0 212.85 85.033"><g data-name="Group 251"><g data-name="Group 249"><g data-name="Group 248"><g data-name="Group 246"><path data-name="Path 299" d="M1371.657 1009.973 1356 960.321l15.445.053V926.51h.208zm-15.369-49.443 15.161 48.092v-48.039z" transform="translate(-1297.829 -925.16)" style="fill:none;stroke:#cea92d"></path><path data-name="Rectangle 1191" transform="rotate(-49.9 66.397 -17.85)" style="fill:none;stroke:#cea92d" d="M0 0h56.426v.208H0z"></path><path data-name="Path 300" d="m1379.593 1012.842-9.649-48.937.008-.025 9.644-31.336.2.061-9.636 31.312 9.638 48.885z" transform="translate(-1305.971 -928.684)" style="fill:none;stroke:#cea92d"></path><g data-name="Group 245"><path data-name="Path 301" d="m1217.98 926.3-.017-.008-.179-.162v.258l.208.453 15.377 33.325.042.087 20.747 44.976.2.433v-46.856zm36.166 78.409-35.837-77.689-.116-.25.736.657 35.222 31.474z" transform="translate(-1217.098 -924.938)" style="fill:none;stroke:#cea92d"></path><path data-name="Path 302" d="m1233.365 960.488-5.744.021h-.22l-9.413.033V926.68h-.208v83.462l15.61-49.518.017-.05.025-.087zm-15.02 47.163v.012l-.354 1.127v-48.04l9.4-.029h.212l5.549-.017z" transform="translate(-1217.098 -925.259)" style="fill:none;stroke:#cea92d"></path><path data-name="Rectangle 1192" transform="rotate(-40.128 2.386 -.22)" style="fill:none;stroke:#cea92d" d="M0 0h.208v56.426H0z"></path><path data-name="Path 303" d="m1217.984 1013.009-.2-.041 9.638-48.885-9.636-31.311.2-.061 9.651 31.361-.005.026z" transform="translate(-1217.098 -928.782)" style="fill:none;stroke:#cea92d"></path></g><path data-name="Path 304" d="m1342.281 925.951-36.539 32.649-.035.031v46.854l36.564-79.26.01-.021zm-36.366 78.589v-45.813l35.958-32.132z" transform="translate(-1268.453 -924.833)" style="fill:none;stroke:#cea92d"></path></g></g></g><g data-name="Group 250"><path data-name="Path 305" d="M209.087 1167.45v-16.377h4.968l2.935 11.17 2.9-11.17h4.979v16.377H221.8l-.011-12.893-3.229 12.893h-3.186l-3.214-12.893-.011 12.893zm21.341-8.09a10.466 10.466 0 0 1 .751-4.208 7.687 7.687 0 0 1 1.525-2.249 6.446 6.446 0 0 1 2.116-1.479 9.02 9.02 0 0 1 3.533-.648 7.7 7.7 0 0 1 5.8 2.249 10.07 10.07 0 0 1 .015 12.476 8.6 8.6 0 0 1-11.581.012 8.48 8.48 0 0 1-2.158-6.153zm3.408-.109a6.151 6.151 0 0 0 1.289 4.223 4.431 4.431 0 0 0 6.522.011 6.274 6.274 0 0 0 1.27-4.281 6.144 6.144 0 0 0-1.239-4.2 4.586 4.586 0 0 0-6.587.016 6.2 6.2 0 0 0-1.255 4.235zm18-8.178h6.03a11.721 11.721 0 0 1 3.111.313 5.444 5.444 0 0 1 2.463 1.51 7.12 7.12 0 0 1 1.563 2.653 12.162 12.162 0 0 1 .534 3.868 10.758 10.758 0 0 1-.5 3.485 7.2 7.2 0 0 1-1.749 2.893 5.787 5.787 0 0 1-2.318 1.307 9.883 9.883 0 0 1-2.919.347h-6.21v-16.377zm3.317 2.768v10.842h2.459a9.013 9.013 0 0 0 1.99-.157 3.005 3.005 0 0 0 1.33-.682 3.439 3.439 0 0 0 .862-1.578 10.625 10.625 0 0 0 .335-3 9.717 9.717 0 0 0-.335-2.912 3.763 3.763 0 0 0-.934-1.586 3.146 3.146 0 0 0-1.525-.769 14.986 14.986 0 0 0-2.7-.157zm16.129 13.609v-16.377H283.4v2.768h-8.8v3.637h8.188v2.767H274.6v4.437h9.126v2.767zm18.184 0v-16.377h3.21l6.74 10.975v-10.975h3.064v16.377h-3.313l-6.636-10.765v10.765zm34.2 0h-3.576l-1.414-3.729h-6.568l-1.361 3.729h-3.507l6.358-16.377h3.5l6.56 16.377zm-6.061-6.5-2.276-6.06-2.211 6.06z" transform="translate(-110.812 -1124.659)" style="fill-rule:evenodd;fill:#a38219"></path><path data-name="Path 306" d="m209.235 1199.827 4.534-11.348h1.72l4.812 11.348h-1.78l-1.367-3.439h-4.976l-1.282 3.439zm3.4-4.66h4.028l-1.232-3.146a37.434 37.434 0 0 1-.848-2.369 15.658 15.658 0 0 1-.652 2.185l-1.3 3.33zm9.334 4.66v-11.348h4.462a11.321 11.321 0 0 1 1.8.108 3.672 3.672 0 0 1 1.461.529 2.824 2.824 0 0 1 .949 1.093 3.345 3.345 0 0 1 .357 1.546 3.391 3.391 0 0 1-.96 2.444q-.957 1-3.468 1h-3.032v4.628zm1.568-5.959h3.054a3.345 3.345 0 0 0 2.154-.541 1.9 1.9 0 0 0 .636-1.527 1.99 1.99 0 0 0-.375-1.218 1.759 1.759 0 0 0-.988-.671 7.022 7.022 0 0 0-1.458-.1h-3.023v4.057zm7.35 5.959h1.66l1.281-3.439h4.977l1.367 3.439h1.78l-4.811-11.348h-1.72l-4.534 11.348zm3.4-4.66 1.3-3.33a15.573 15.573 0 0 0 .653-2.185c.2.624.475 1.413.847 2.369l1.232 3.146zm9.366 4.66v-11.348h5.238a7.25 7.25 0 0 1 2.4.306 2.6 2.6 0 0 1 1.312 1.078 3.128 3.128 0 0 1 .489 1.709 2.8 2.8 0 0 1-.813 2.036 4.2 4.2 0 0 1-2.512 1.051 4.056 4.056 0 0 1 .944.565 7.768 7.768 0 0 1 1.293 1.511l2.044 3.09H252.1l-1.563-2.362c-.454-.684-.83-1.2-1.125-1.566a3.517 3.517 0 0 0-.8-.758 2.427 2.427 0 0 0-.712-.3 5.074 5.074 0 0 0-.869-.053h-1.811v5.04zm1.568-6.339h3.357a5.182 5.182 0 0 0 1.672-.214 1.734 1.734 0 0 0 .913-.682 1.783 1.783 0 0 0 .314-1.017 1.669 1.669 0 0 0-.6-1.326 2.91 2.91 0 0 0-1.915-.519h-3.736v3.756zm13.456 6.339v-10.017h-3.9v-1.331h9.359v1.331h-3.9v10.017zm7.473 0v-11.348h2.35l2.794 8.033q.387 1.121.564 1.679c.134-.411.347-1.019.632-1.819l2.845-7.894h2.094v11.348h-1.5v-9.494l-3.45 9.494h-1.409l-3.412-9.668v9.668zm14.244 0v-11.348h8.534v1.331h-6.965v3.487h6.519v1.331h-6.519v3.868h7.246v1.331zm11.389 0v-11.348h1.607l6.2 8.908v-8.908h1.5v11.348h-1.607l-6.2-8.907v8.907zm15.37 0v-10.017h-3.9v-1.331h9.359v1.331h-3.9v10.017zm6.995-3.646 1.47-.126a3.061 3.061 0 0 0 .486 1.405 2.68 2.68 0 0 0 1.188.887 4.655 4.655 0 0 0 1.813.339 4.441 4.441 0 0 0 1.578-.257 2.175 2.175 0 0 0 1.019-.7 1.6 1.6 0 0 0 .336-.973 1.44 1.44 0 0 0-.321-.929 2.428 2.428 0 0 0-1.065-.669q-.474-.175-2.1-.552a11.052 11.052 0 0 1-2.282-.708 3.15 3.15 0 0 1-1.256-1.059 2.507 2.507 0 0 1-.416-1.413 2.8 2.8 0 0 1 .509-1.609 3.117 3.117 0 0 1 1.483-1.136 5.82 5.82 0 0 1 2.167-.388 6.123 6.123 0 0 1 2.316.406 3.3 3.3 0 0 1 1.544 1.2 3.353 3.353 0 0 1 .581 1.789l-1.5.111a2.272 2.272 0 0 0-.817-1.622 3.272 3.272 0 0 0-2.059-.55 3.406 3.406 0 0 0-2.069.5 1.481 1.481 0 0 0-.65 1.2 1.273 1.273 0 0 0 .46 1.007 6.409 6.409 0 0 0 2.358.809 16.241 16.241 0 0 1 2.616.723 3.543 3.543 0 0 1 1.521 1.155 2.723 2.723 0 0 1 .49 1.609 2.992 2.992 0 0 1-.539 1.7 3.5 3.5 0 0 1-1.549 1.244 5.584 5.584 0 0 1-2.274.444 7.034 7.034 0 0 1-2.682-.449 3.7 3.7 0 0 1-2.347-3.387z" transform="translate(-110.863 -1137.584)" style="fill:#2b2a29;fill-rule:evenodd"></path></g></g></svg> 