<?xml version="1.0" encoding="UTF-8"?> <svg xmlns="http://www.w3.org/2000/svg" width="98" height="82" viewBox="0 0 98 82"><g data-name="Group 321"><path data-name="Rectangle 1217" style="fill:none" d="M0 0h98v82H0z"></path><g data-name="Group 264"><g data-name="Group 263"><path data-name="Path 314" d="m2308.653 2130.75 21.432-34.442 25.119 40.1" transform="translate(-2263.118 -2068.538)" style="stroke:#cea92d;stroke-miterlimit:10;stroke-width:2px;fill:none"></path><path data-name="Path 315" d="m2315.909 2112.949 2.059 2.151 5.067-4.382 5.409 6.025 4.451-4.313 6.505 6.779 3.851-2.543" transform="translate(-2261.435 -2065.154)" style="stroke:#cea92d;stroke-miterlimit:10;stroke-width:2px;fill:none"></path><path data-name="Path 316" d="M2273.514 2128.168c7.83 0 7.83 7 15.659 7s7.831-7 15.662-7 7.833 7 15.667 7 7.832-7 15.663-7 7.838 7 15.675 7 7.837-7 15.674-7v12.746h-94z" transform="translate(-2271.514 -2060.975)" style="stroke:#cea92d;stroke-miterlimit:10;stroke-width:2px;fill:none"></path><path data-name="Path 317" d="M2328.382 2133.623s-15.564-18.04-54.868-13.452v10.682" transform="translate(-2271.514 -2063.033)" style="stroke:#cea92d;stroke-miterlimit:10;stroke-width:2px;fill:none"></path><g data-name="Group 262"><path data-name="Line 8" style="stroke:#cea92d;stroke-miterlimit:10;stroke-width:2px;fill:none" d="M0 0v9.643" transform="translate(21.818 47.01)"></path><path data-name="Line 9" transform="translate(31.062 47.01)" style="stroke:#cea92d;stroke-miterlimit:10;stroke-width:2px;fill:none" d="M0 0v10.917"></path></g><path data-name="Path 318" d="m2308.3 2094.1-12.736-17.788-12.736 17.788z" transform="translate(-2269.322 -2073.372)" style="stroke:#cea92d;stroke-miterlimit:10;stroke-width:2px;fill:none"></path><path data-name="Path 319" d="m2305.618 2090.71 9.044 11.984H2278.5l9.043-11.984" transform="translate(-2270.34 -2069.93)" style="stroke:#cea92d;stroke-miterlimit:10;stroke-width:2px;fill:none"></path><path data-name="Path 320" d="m2305.9 2100.41 12.59 14.171h-42.59l12.59-14.171" transform="translate(-2270.952 -2067.608)" style="stroke:#cea92d;stroke-miterlimit:10;stroke-width:2px;fill:none"></path><path data-name="Path 321" d="M2331.166 2083.6a4.539 4.539 0 0 0-2.584.807 6.153 6.153 0 0 0-10.933-1.189 5.024 5.024 0 1 0 1.238 8.094 6.149 6.149 0 0 0 8.488-.608 4.564 4.564 0 1 0 3.791-7.1z" transform="translate(-2262.754 -2072.408)" style="stroke:#cea92d;stroke-miterlimit:10;stroke-width:2px;fill:none"></path></g></g></g></svg> 